<svg width="16" height="12" viewBox="0 0 16 12" fill="none" xmlns="http://www.w3.org/2000/svg">
<path fill-rule="evenodd" clip-rule="evenodd" d="M10 10.5C10 10.7761 9.77614 11 9.5 11H1.5C1.22386 11 1 10.7761 1 10.5L1 1.5C1 1.22386 1.22386 1 1.5 1L9.5 1C9.77614 1 10 1.22386 10 1.5V3.5C10 3.77614 10.2239 4 10.5 4C10.7761 4 11 3.77614 11 3.5V1.5C11 0.671573 10.3284 3.85903e-07 9.5 3.49691e-07L1.5 0C0.671574 -3.62117e-08 4.29614e-07 0.671573 3.93403e-07 1.5L0 10.5C-3.62117e-08 11.3284 0.671573 12 1.5 12H9.5C10.3284 12 11 11.3284 11 10.5V8.5C11 8.22386 10.7761 8 10.5 8C10.2239 8 10 8.22386 10 8.5V10.5Z" fill="#2F4F4F"/>
<path fill-rule="evenodd" clip-rule="evenodd" d="M15.8536 6.35355C16.0488 6.15829 16.0488 5.84171 15.8536 5.64645L12.8536 2.64645C12.6583 2.45118 12.3417 2.45118 12.1464 2.64645C11.9512 2.84171 11.9512 3.15829 12.1464 3.35355L14.2929 5.5L5.5 5.5C5.22386 5.5 5 5.72386 5 6C5 6.27614 5.22386 6.5 5.5 6.5L14.2929 6.5L12.1464 8.64645C11.9512 8.84171 11.9512 9.15829 12.1464 9.35355C12.3417 9.54882 12.6583 9.54882 12.8536 9.35355L15.8536 6.35355Z" fill="#2F4F4F"/>
</svg>
